# xmcd
#
# Track frame offsets:
#	150
#	22102
#	40947
#	63192
#	83060
#	101337
#	118490
#	135672
#	156760
#	171405
#	188522
#	211465
#
# Disc length: 3027 seconds
#
# Revision: 1
# Processed by: cddbd v1.5.1PL0 Copyright (c) Steve Scherf et al.
# Submitted via: audiograbber 1.83.01
#
DISCID=a20bd10c
DTITLE=Kelly Lang - It's About Time
DYEAR=2004
DGENRE=Country
TTITLE0=Goodbye Darlin
TTITLE1=Something 'Bout Ya
TTITLE2=You Complete Me
TTITLE3=Down In Destin
TTITLE4=Party Time
TTITLE5=He's To Good To Be Blue
TTITLE6=Single Mother
TTITLE7=Feels Like Home
TTITLE8=These Are Them
TTITLE9=Looking Down
TTITLE10=When We Loved Here
TTITLE11=Down On My Knees
EXTD=
EXTT0=
EXTT1=
EXTT2=
EXTT3=
EXTT4=
EXTT5=
EXTT6=
EXTT7=
EXTT8=
EXTT9=
EXTT10=
EXTT11=
PLAYORDER=
